<svg viewBox="0 0 16 16" fill="none" xmlns="http://www.w3.org/2000/svg">
    <path fill="currentColor"
        d="M12.4739 7.00061C13.0511 7.32858 13.3398 7.49256 13.4366 7.70664C13.5211 7.89338 13.5211 8.10662 13.4366 8.29336C13.3398 8.50744 13.0511 8.67142 12.4739 8.99939L6.25909 12.5302C5.68182 12.8581 5.39319 13.0221 5.15634 12.9976C4.94975 12.9762 4.76208 12.8696 4.63998 12.7042C4.5 12.5147 4.5 12.1867 4.5 11.5308L4.5 4.46923C4.5 3.8133 4.5 3.48534 4.63998 3.29575C4.76208 3.13038 4.94975 3.02376 5.15634 3.00239C5.39319 2.9779 5.68182 3.14188 6.25909 3.46984L12.4739 7.00061Z" />
</svg>
