<svg width="240" height="240" viewBox="0 0 240 240" fill="none" xmlns="http://www.w3.org/2000/svg">
<rect width="240" height="240" rx="20" fill="#F0F6FC"/>
<path fill-rule="evenodd" clip-rule="evenodd" d="M77.0966 67.2633C79.1143 65.2456 82.3857 65.2456 84.4034 67.2633L172.237 155.097C174.254 157.114 174.254 160.386 172.237 162.403C170.219 164.421 166.948 164.421 164.93 162.403L163.144 160.618L156.539 154.012L132.635 130.109L126.028 123.502L108.198 105.671L97.6619 95.1353L85.4876 82.9611L78.8822 76.3557L77.0966 74.5701C75.0789 72.5523 75.0789 69.281 77.0966 67.2633Z" fill="#C1DAF2"/>
<path d="M154.977 167.15C158.135 165.461 160.877 163.265 163.144 160.618L156.539 154.012C154.934 156.038 152.945 157.691 150.591 158.949L149.319 159.582C146.115 161.052 142.593 161.694 135.788 161.824L132.883 161.85H106.117L103.212 161.824C95.4989 161.676 92.0042 160.872 88.4085 158.949C87.0151 158.204 85.7493 157.321 84.6154 156.304L99.1124 142.066L109.662 150.72C111.645 152.347 114.572 152.061 116.202 150.08L132.635 130.109L126.028 123.502L111.97 140.585L101.782 132.228C99.946 130.721 97.2695 130.841 95.5749 132.505L79.3472 148.444C78.2778 145.563 77.7879 142.139 77.6756 136.288L77.6499 133.383V106.617C77.6499 97.8512 78.2516 93.8123 79.9178 90.1806L80.5507 88.9087C81.8094 86.5553 83.4619 84.5659 85.4876 82.9611L78.8822 76.3557C76.2354 78.6233 74.0388 81.3648 72.3499 84.5228C69.5379 89.7809 68.4638 94.853 68.3586 104.896L68.3499 133.383C68.3499 144.584 69.3816 149.927 72.3499 155.477C75.0347 160.497 79.0024 164.465 84.0227 167.15C89.5728 170.118 94.9158 171.15 106.117 171.15H132.883C144.084 171.15 149.427 170.118 154.977 167.15Z" fill="#C1DAF2"/>
<path d="M93.6665 101.917C93.6665 106.197 97.1363 109.667 101.417 109.667C104.335 109.667 106.876 108.054 108.198 105.671L97.6619 95.1353C95.2792 96.4574 93.6665 98.9987 93.6665 101.917Z" fill="#C1DAF2"/>
<path d="M134.604 68.8588L110.767 68.8516C108.199 68.8508 106.117 70.9326 106.117 73.5009C106.117 76.0686 108.198 78.1501 110.766 78.1501H132.883L135.788 78.1759C143.501 78.3239 146.996 79.1281 150.591 81.051C153.991 82.8691 156.631 85.5093 158.449 88.9088L159.082 90.1807C160.552 93.3851 161.194 96.9066 161.324 103.712L161.35 106.617V128.733C161.35 131.301 163.432 133.383 166 133.383C168.568 133.383 170.65 131.301 170.65 128.733V106.617C170.65 95.4161 169.618 90.0731 166.65 84.5229C163.965 79.5027 159.997 75.535 154.977 72.8502C149.719 70.0382 144.647 68.9641 134.604 68.8588Z" fill="#C1DAF2"/>
</svg>
