<svg width="240" height="320" viewBox="0 0 240 320" fill="none" xmlns="http://www.w3.org/2000/svg">
<rect width="240" height="320" rx="20" fill="#F0F6FC"/>
<path d="M106.617 108.85L135.104 108.858C145.147 108.964 150.219 110.038 155.477 112.85C160.497 115.534 164.465 119.502 167.15 124.522C170.118 130.073 171.15 135.416 171.15 146.616V173.383C171.15 184.584 170.118 189.927 167.15 195.477C164.465 200.497 160.497 204.465 155.477 207.15C149.927 210.118 144.584 211.15 133.383 211.15H106.617C95.416 211.15 90.0729 210.118 84.5228 207.15C79.5026 204.465 75.5349 200.497 72.85 195.477C69.8818 189.927 68.85 184.584 68.85 173.383L68.8587 144.896C68.964 134.853 70.038 129.78 72.85 124.522C75.5349 119.502 79.5026 115.534 84.5228 112.85C90.0729 109.881 95.416 108.85 106.617 108.85ZM135.963 166.673L116.702 190.079C115.072 192.06 112.145 192.347 110.162 190.72L99.6126 182.066L85.1156 196.303C86.2495 197.32 87.5153 198.204 88.9087 198.949C92.5043 200.872 95.9991 201.676 103.712 201.824L106.617 201.85H133.383L136.288 201.824C143.094 201.693 146.615 201.052 149.819 199.582L151.091 198.949C154.491 197.131 157.131 194.49 158.949 191.091C159.465 190.127 159.9 189.17 160.264 188.137L135.963 166.673ZM133.383 118.15H106.617L103.712 118.175C96.9065 118.306 93.385 118.947 90.1806 120.418L88.9087 121.051C85.5092 122.869 82.869 125.509 81.0509 128.908L80.4179 130.18C78.7518 133.812 78.15 137.851 78.15 146.616V173.383L78.1757 176.287C78.288 182.139 78.7779 185.562 79.8474 188.444L96.075 172.505C97.7696 170.841 100.446 170.721 102.282 172.227L112.471 180.585L131.841 157.045C133.514 155.013 136.538 154.772 138.51 156.515L161.806 177.104C161.813 176.837 161.819 176.565 161.824 176.287L161.85 173.383V146.616L161.824 143.712C161.694 136.906 161.052 133.385 159.582 130.18L158.949 128.908C157.131 125.509 154.491 122.869 151.091 121.051C147.496 119.128 144.001 118.323 136.288 118.175L133.383 118.15ZM101.917 134.166C106.197 134.166 109.667 137.636 109.667 141.916C109.667 146.196 106.197 149.666 101.917 149.666C97.6365 149.666 94.1667 146.196 94.1667 141.916C94.1667 137.636 97.6365 134.166 101.917 134.166Z" fill="#C1DAF2"/>
</svg>
