<svg width="240" height="240" viewBox="0 0 240 240" fill="none" xmlns="http://www.w3.org/2000/svg">
<rect width="240" height="240" rx="20" fill="white"/>
<path d="M106.117 68.8496L134.604 68.8583C144.647 68.9636 149.719 70.0376 154.977 72.8496C159.997 75.5345 163.965 79.5022 166.65 84.5224C169.618 90.0725 170.65 95.4156 170.65 106.616V133.383C170.65 144.584 169.618 149.927 166.65 155.477C163.965 160.497 159.997 164.465 154.977 167.15C149.427 170.118 144.084 171.15 132.883 171.15H106.117C94.916 171.15 89.5729 170.118 84.0228 167.15C79.0026 164.465 75.0349 160.497 72.35 155.477C69.3818 149.927 68.35 144.584 68.35 133.383L68.3587 104.896C68.464 94.8526 69.538 89.7804 72.35 84.5224C75.0349 79.5022 79.0026 75.5345 84.0228 72.8496C89.5729 69.8814 94.916 68.8496 106.117 68.8496ZM135.463 126.673L116.202 150.079C114.572 152.06 111.645 152.347 109.662 150.72L99.1126 142.066L84.6156 156.303C85.7495 157.32 87.0153 158.204 88.4087 158.949C92.0043 160.872 95.4991 161.676 103.212 161.824L106.117 161.85H132.883L135.788 161.824C142.594 161.693 146.115 161.052 149.319 159.582L150.591 158.949C153.991 157.131 156.631 154.49 158.449 151.091C158.965 150.127 159.4 149.17 159.764 148.137L135.463 126.673ZM132.883 78.1496H106.117L103.212 78.1754C96.4065 78.3059 92.885 78.9474 89.6806 80.4175L88.4087 81.0505C85.0092 82.8686 82.369 85.5088 80.5509 88.9083L79.9179 90.1802C78.2518 93.8119 77.65 97.8508 77.65 106.616V133.383L77.6757 136.287C77.788 142.139 78.2779 145.562 79.3474 148.444L95.575 132.505C97.2696 130.841 99.9461 130.721 101.782 132.227L111.971 140.585L131.341 117.045C133.014 115.013 136.038 114.772 138.01 116.515L161.306 137.104C161.313 136.837 161.319 136.565 161.324 136.287L161.35 133.383V106.616L161.324 103.712C161.194 96.9061 160.552 93.3846 159.082 90.1802L158.449 88.9083C156.631 85.5088 153.991 82.8686 150.591 81.0505C146.996 79.1275 143.501 78.3233 135.788 78.1754L132.883 78.1496ZM101.417 94.1663C105.697 94.1663 109.167 97.6361 109.167 101.916C109.167 106.196 105.697 109.666 101.417 109.666C97.1365 109.666 93.6667 106.196 93.6667 101.916C93.6667 97.6361 97.1365 94.1663 101.417 94.1663Z" fill="#E0E4ED"/>
</svg>
